<svg xmlns="http://www.w3.org/2000/svg" viewBox="0 0 64 64" role="img" aria-labelledby="title">
  <title>Autorent Lab</title>
  <defs>
    <linearGradient id="body" x1="8" x2="56" y1="18" y2="46" gradientUnits="userSpaceOnUse">
      <stop offset="0" stop-color="#38bdf8" />
      <stop offset="1" stop-color="#0f172a" />
    </linearGradient>
  </defs>
  <rect width="64" height="64" rx="16" fill="#020617" />
  <path
    d="M16 37.5c0-2.7 1.6-5.2 4.1-6.2l3.6-9.1A4 4 0 0 1 27.4 20h9.2a8 8 0 0 1 5.7 2.3l4.2 4.3h2.4c3.9 0 7.1 3.2 7.1 7.1v6.8a1.5 1.5 0 0 1-1.5 1.5h-2.7a6.5 6.5 0 0 1-12.6 0H25.8a6.5 6.5 0 0 1-12.6 0H11.5A1.5 1.5 0 0 1 10 40.5v-3Z"
    fill="url(#body)"
  />
  <path
    d="M26.7 24a1 1 0 0 0-.9.6l-2.6 6.8h18.2l-3.1-3.1a4.5 4.5 0 0 0-3.2-1.3h-8.4Z"
    fill="#e0f2fe"
    opacity=".95"
  />
  <circle cx="19.8" cy="42" r="4.6" fill="#0f172a" />
  <circle cx="45.2" cy="42" r="4.6" fill="#0f172a" />
  <circle cx="19.8" cy="42" r="2.2" fill="#cbd5e1" />
  <circle cx="45.2" cy="42" r="2.2" fill="#cbd5e1" />
  <path d="M47.5 31.2h4.7c1.6 0 2.8 1.3 2.8 2.8v1.7h-5.8a1.7 1.7 0 0 1-1.7-1.7v-2.8Z" fill="#38bdf8" />
</svg>
